<svg width="120" height="28" viewBox="0 0 120 28" fill="none" xmlns="http://www.w3.org/2000/svg">
<path d="M49.0963 27.6584H44.7255V0H49.0963V27.6584Z" fill="#007bfb"/>
<path d="M22.2647 27.6584H26.6354L26.6447 27.6677V14.9001C27.0463 13.9123 27.7001 13.1091 28.5966 12.4906C29.4932 11.8721 30.4645 11.5582 31.5105 11.5582C33.2756 11.5582 34.527 12.0013 35.2835 12.8876C36.04 13.7738 36.4136 15.1032 36.4136 16.8665V27.6677H40.7843V16.5249C40.7843 10.5335 38.1133 7.54237 32.7713 7.54237C30.2403 7.54237 28.1951 8.27168 26.6354 9.73954V7.95779H22.2647V27.6584Z" fill="#007bfb"/>
<path d="M18.2115 7.84702H13.8407V20.5776C12.664 22.8487 10.9549 23.9842 8.70415 23.9842C5.81833 23.9842 4.37075 22.2486 4.37075 18.759V7.84702H0V19.1744C0 25.0551 2.76441 28 8.28388 28C10.5066 28 12.3558 27.1876 13.8407 25.572V27.6584H18.2115V7.84702Z" fill="#007bfb"/>
<path fill-rule="evenodd" clip-rule="evenodd" d="M55.2695 10.3488C53.2522 12.2413 52.2436 14.7155 52.2436 17.7712C52.2436 20.7254 53.2615 23.1718 55.2881 25.1012C57.3241 27.0307 59.855 28 62.8996 28C65.9442 28 68.4844 27.0491 70.5297 25.1566C72.575 23.2641 73.593 20.7992 73.593 17.7712C73.593 14.7432 72.5937 12.2783 70.5858 10.3673C68.5778 8.45631 65.9722 7.50544 62.8996 7.50544C59.827 7.50544 57.2867 8.45631 55.2695 10.3488ZM58.4915 22.2024C57.3428 21.0208 56.7637 19.5437 56.7637 17.7712C56.7637 15.9525 57.3334 14.457 58.4541 13.2845C59.5748 12.1121 61.0878 11.5213 62.8996 11.5213C64.7114 11.5213 66.1963 12.1121 67.3451 13.2845C68.4938 14.457 69.0728 15.9064 69.0728 17.7712C69.0728 19.636 68.5125 21.1408 67.4011 22.2763C66.2897 23.4118 64.7861 23.9842 62.8996 23.9842C61.1065 23.9842 59.6402 23.3933 58.4915 22.2024Z" fill="#007bfb"/>
<path d="M91.8405 21.1777L94.9411 23.1441C94.1193 24.6581 92.9426 25.849 91.3923 26.7076C89.8419 27.5661 88.1796 28 86.3864 28C83.1924 28 80.6055 27.0676 78.6255 25.1935C76.6456 23.3287 75.6557 20.8454 75.6557 17.7712C75.6557 14.697 76.655 12.306 78.6629 10.3858C80.6708 8.46554 83.1644 7.50544 86.153 7.50544C87.9367 7.50544 89.6178 7.88394 91.1961 8.64095C92.7745 9.39795 93.9325 10.515 94.7077 11.9736L91.4483 14.0969C90.1408 12.3798 88.4411 11.5213 86.3491 11.5213C84.5093 11.5213 83.0243 12.1029 81.8849 13.2661C80.7455 14.4293 80.1759 15.9341 80.1759 17.7712C80.1759 19.6083 80.8109 21.1408 82.0717 22.2763C83.3325 23.4118 84.9108 23.9842 86.8067 23.9842C88.88 23.9842 90.5517 23.0518 91.8312 21.1777H91.8405Z" fill="#007bfb"/>
<path d="M97.352 27.6584H101.723V20.4669L102.984 19.4791L110.305 27.6584H115.862L106.318 16.6357L115.405 7.95779H109.773L101.723 15.7217V0H97.352V27.6584Z" fill="#007bfb"/>
</svg>
